<mxfile host="www.draw.io" modified="2019-11-01T03:54:45.457Z" agent="Mozilla/5.0 (Macintosh; Intel Mac OS X 10_14_0) AppleWebKit/537.36 (KHTML, like Gecko) Chrome/78.0.3904.70 Safari/537.36" etag="kZwlY_-wpcOn_xHBR3oU" version="12.1.9" type="github" pages="2">
  <diagram id="1l8nbZYicziy1tsvWMK8" name="Page-1">
    <mxGraphModel dx="1412" dy="678" grid="0" gridSize="10" guides="1" tooltips="1" connect="1" arrows="1" fold="1" page="1" pageScale="1" pageWidth="827" pageHeight="1169" math="0" shadow="0">
      <root>
        <mxCell id="0"/>
        <mxCell id="1" parent="0"/>
        <mxCell id="5wOLp9JNuA5uwsZeebMo-1" value="" style="shape=hexagon;perimeter=hexagonPerimeter2;whiteSpace=wrap;html=1;direction=north;opacity=80;" parent="1" vertex="1">
          <mxGeometry x="160" y="169" width="530" height="512" as="geometry"/>
        </mxCell>
        <mxCell id="_icPRjUHa89k4BcRh54H-20" value="基础版" parent="0"/>
        <mxCell id="pjao0-m2motwMmsoUG0E-2" value="&lt;b&gt;流量运营&lt;/b&gt;" style="ellipse;whiteSpace=wrap;html=1;aspect=fixed;fillColor=#dae8fc;strokeColor=#6c8ebf;flipV=1;" parent="_icPRjUHa89k4BcRh54H-20" vertex="1">
          <mxGeometry x="352.6" y="99" width="150" height="150" as="geometry"/>
        </mxCell>
        <mxCell id="pjao0-m2motwMmsoUG0E-3" value="&lt;b&gt;基础业务&lt;/b&gt;" style="ellipse;whiteSpace=wrap;html=1;aspect=fixed;fillColor=#dae8fc;strokeColor=#6c8ebf;" parent="_icPRjUHa89k4BcRh54H-20" vertex="1">
          <mxGeometry x="87" y="478.2" width="150" height="150" as="geometry"/>
        </mxCell>
        <mxCell id="pjao0-m2motwMmsoUG0E-4" value="&lt;b&gt;交易中心&lt;/b&gt;" style="ellipse;whiteSpace=wrap;html=1;aspect=fixed;fillColor=#dae8fc;strokeColor=#6c8ebf;" parent="_icPRjUHa89k4BcRh54H-20" vertex="1">
          <mxGeometry x="616.6" y="475.2" width="150" height="150" as="geometry"/>
        </mxCell>
        <mxCell id="_icPRjUHa89k4BcRh54H-24" value="强化版" parent="0"/>
        <mxCell id="pjao0-m2motwMmsoUG0E-5" value="&lt;b&gt;内部运营&lt;/b&gt;" style="ellipse;whiteSpace=wrap;html=1;aspect=fixed;fillColor=#d5e8d4;strokeColor=#82b366;" parent="_icPRjUHa89k4BcRh54H-24" vertex="1">
          <mxGeometry x="87" y="224.2" width="150" height="150" as="geometry"/>
        </mxCell>
        <mxCell id="pjao0-m2motwMmsoUG0E-6" value="&lt;b&gt;信息通道&lt;/b&gt;" style="ellipse;whiteSpace=wrap;html=1;aspect=fixed;fillColor=#d5e8d4;strokeColor=#82b366;" parent="_icPRjUHa89k4BcRh54H-24" vertex="1">
          <mxGeometry x="616.6" y="224.2" width="150" height="150" as="geometry"/>
        </mxCell>
        <mxCell id="pjao0-m2motwMmsoUG0E-7" value="&lt;b&gt;生态建设&lt;/b&gt;" style="ellipse;whiteSpace=wrap;html=1;aspect=fixed;fillColor=#d5e8d4;strokeColor=#82b366;flipV=1;" parent="_icPRjUHa89k4BcRh54H-24" vertex="1">
          <mxGeometry x="350.6" y="608.4" width="150" height="150" as="geometry"/>
        </mxCell>
        <mxCell id="_icPRjUHa89k4BcRh54H-51" value="服务中心" parent="0"/>
        <mxCell id="_icPRjUHa89k4BcRh54H-52" value="清结算" style="ellipse;whiteSpace=wrap;html=1;aspect=fixed;fillColor=#d5e8d4;strokeColor=#82b366;opacity=40;" parent="_icPRjUHa89k4BcRh54H-51" vertex="1">
          <mxGeometry x="146.5" y="228" width="60" height="60" as="geometry"/>
        </mxCell>
        <mxCell id="_icPRjUHa89k4BcRh54H-53" value="内部&lt;br&gt;运营" style="ellipse;whiteSpace=wrap;html=1;aspect=fixed;fillColor=#d5e8d4;strokeColor=#82b366;opacity=40;" parent="_icPRjUHa89k4BcRh54H-51" vertex="1">
          <mxGeometry x="110.5" y="307" width="60" height="60" as="geometry"/>
        </mxCell>
        <mxCell id="_icPRjUHa89k4BcRh54H-54" value="开放&lt;br&gt;平台" style="ellipse;whiteSpace=wrap;html=1;aspect=fixed;fillColor=#dae8fc;strokeColor=#6c8ebf;opacity=40;" parent="_icPRjUHa89k4BcRh54H-51" vertex="1">
          <mxGeometry x="401" y="100" width="60" height="60" as="geometry"/>
        </mxCell>
        <mxCell id="_icPRjUHa89k4BcRh54H-55" value="房源" style="ellipse;whiteSpace=wrap;html=1;aspect=fixed;fillColor=#dae8fc;strokeColor=#6c8ebf;opacity=40;" parent="_icPRjUHa89k4BcRh54H-51" vertex="1">
          <mxGeometry x="91.5" y="540" width="60" height="60" as="geometry"/>
        </mxCell>
        <mxCell id="_icPRjUHa89k4BcRh54H-56" value="内容" style="ellipse;whiteSpace=wrap;html=1;aspect=fixed;fillColor=#dae8fc;strokeColor=#6c8ebf;opacity=40;" parent="_icPRjUHa89k4BcRh54H-51" vertex="1">
          <mxGeometry x="164.5" y="553" width="60" height="60" as="geometry"/>
        </mxCell>
        <mxCell id="_icPRjUHa89k4BcRh54H-57" value="商城" style="ellipse;whiteSpace=wrap;html=1;aspect=fixed;fillColor=#d5e8d4;strokeColor=#82b366;opacity=40;" parent="_icPRjUHa89k4BcRh54H-51" vertex="1">
          <mxGeometry x="371.5" y="689" width="60" height="60" as="geometry"/>
        </mxCell>
        <mxCell id="_icPRjUHa89k4BcRh54H-58" value="达人" style="ellipse;whiteSpace=wrap;html=1;aspect=fixed;fillColor=#d5e8d4;strokeColor=#82b366;opacity=40;" parent="_icPRjUHa89k4BcRh54H-51" vertex="1">
          <mxGeometry x="440.5" y="660" width="60" height="60" as="geometry"/>
        </mxCell>
        <mxCell id="_icPRjUHa89k4BcRh54H-59" value="聊天" style="ellipse;whiteSpace=wrap;html=1;aspect=fixed;fillColor=#d5e8d4;strokeColor=#82b366;opacity=40;" parent="_icPRjUHa89k4BcRh54H-51" vertex="1">
          <mxGeometry x="701.5" y="287" width="60" height="60" as="geometry"/>
        </mxCell>
        <mxCell id="_icPRjUHa89k4BcRh54H-60" value="通道" style="ellipse;whiteSpace=wrap;html=1;aspect=fixed;fillColor=#d5e8d4;strokeColor=#82b366;opacity=40;" parent="_icPRjUHa89k4BcRh54H-51" vertex="1">
          <mxGeometry x="628.5" y="298" width="60" height="60" as="geometry"/>
        </mxCell>
        <mxCell id="_icPRjUHa89k4BcRh54H-61" value="订单" style="ellipse;whiteSpace=wrap;html=1;aspect=fixed;fillColor=#dae8fc;strokeColor=#6c8ebf;opacity=40;" parent="_icPRjUHa89k4BcRh54H-51" vertex="1">
          <mxGeometry x="663.5" y="475" width="60" height="60" as="geometry"/>
        </mxCell>
        <mxCell id="_icPRjUHa89k4BcRh54H-62" value="促销" style="ellipse;whiteSpace=wrap;html=1;aspect=fixed;fillColor=#dae8fc;strokeColor=#6c8ebf;opacity=40;" parent="_icPRjUHa89k4BcRh54H-51" vertex="1">
          <mxGeometry x="703.5" y="534" width="60" height="60" as="geometry"/>
        </mxCell>
        <mxCell id="_icPRjUHa89k4BcRh54H-63" value="支付" style="ellipse;whiteSpace=wrap;html=1;aspect=fixed;fillColor=#dae8fc;strokeColor=#6c8ebf;opacity=40;" parent="_icPRjUHa89k4BcRh54H-51" vertex="1">
          <mxGeometry x="633.5" y="552" width="60" height="60" as="geometry"/>
        </mxCell>
        <mxCell id="_icPRjUHa89k4BcRh54H-64" value="活动&lt;br&gt;平台" style="ellipse;whiteSpace=wrap;html=1;aspect=fixed;fillColor=#dae8fc;strokeColor=#6c8ebf;opacity=40;" parent="_icPRjUHa89k4BcRh54H-51" vertex="1">
          <mxGeometry x="437" y="160" width="60" height="60" as="geometry"/>
        </mxCell>
        <mxCell id="_icPRjUHa89k4BcRh54H-65" value="搜索&lt;br&gt;推荐" style="ellipse;whiteSpace=wrap;html=1;aspect=fixed;fillColor=#dae8fc;strokeColor=#6c8ebf;opacity=40;" parent="_icPRjUHa89k4BcRh54H-51" vertex="1">
          <mxGeometry x="367.5" y="175" width="60" height="60" as="geometry"/>
        </mxCell>
        <mxCell id="_icPRjUHa89k4BcRh54H-66" value="用户" style="ellipse;whiteSpace=wrap;html=1;aspect=fixed;fillColor=#dae8fc;strokeColor=#6c8ebf;opacity=40;" parent="_icPRjUHa89k4BcRh54H-51" vertex="1">
          <mxGeometry x="134.5" y="479" width="60" height="60" as="geometry"/>
        </mxCell>
        <mxCell id="_icPRjUHa89k4BcRh54H-67" value="房东&lt;br&gt;服务" style="ellipse;whiteSpace=wrap;html=1;aspect=fixed;fillColor=#d5e8d4;strokeColor=#82b366;opacity=40;" parent="_icPRjUHa89k4BcRh54H-51" vertex="1">
          <mxGeometry x="374.5" y="615" width="60" height="60" as="geometry"/>
        </mxCell>
        <mxCell id="_icPRjUHa89k4BcRh54H-68" value="提醒" style="ellipse;whiteSpace=wrap;html=1;aspect=fixed;fillColor=#d5e8d4;strokeColor=#82b366;opacity=40;" parent="_icPRjUHa89k4BcRh54H-51" vertex="1">
          <mxGeometry x="644.5" y="228" width="60" height="60" as="geometry"/>
        </mxCell>
      </root>
    </mxGraphModel>
  </diagram>
  <diagram id="aiuz3OGI23xeNnu5Waln" name="why">
    <mxGraphModel dx="1177" dy="707" grid="1" gridSize="10" guides="1" tooltips="1" connect="1" arrows="1" fold="1" page="1" pageScale="1" pageWidth="827" pageHeight="1169" math="0" shadow="0">
      <root>
        <mxCell id="bKvJF1j34tb1oQS6L37d-0"/>
        <mxCell id="bKvJF1j34tb1oQS6L37d-1" parent="bKvJF1j34tb1oQS6L37d-0"/>
        <mxCell id="bKvJF1j34tb1oQS6L37d-3" value="&lt;h1&gt;为什么拆分&lt;/h1&gt;&lt;div&gt;一、单体瓶颈&lt;/div&gt;&lt;div&gt;研发效率、系统资源、服务瓶颈&lt;/div&gt;&lt;div&gt;&lt;br&gt;&lt;/div&gt;&lt;div&gt;二、视角切换&lt;/div&gt;&lt;div&gt;从面向过程到面向服务。以图库为例：小猪和达人的业务过程不同一个要求图片在裁切的时候保高，一个要求保宽。人的自然线性思维导致在编写程序的时候提出传递 来源，根据来源判断。而面向服务的实现过程就是图库对外暴露保宽和保高的能力，需求方按照图库定义的规范调取对应的能力。这样我们就把一坨代码分成一个基础服务提供能力，两个业务系统调取能力。基础服务、两个业务系统都是独立的，而不是在一堆if else里相互影响。新的业务进来只是增加了一个新的业务调用方。几个系统之间是完全独立的。保证了系统的稳定和柔性。&lt;/div&gt;" style="text;html=1;strokeColor=none;fillColor=none;spacing=5;spacingTop=-20;whiteSpace=wrap;overflow=hidden;rounded=0;opacity=80;" vertex="1" parent="bKvJF1j34tb1oQS6L37d-1">
          <mxGeometry x="80" y="80" width="690" height="320" as="geometry"/>
        </mxCell>
      </root>
    </mxGraphModel>
  </diagram>
</mxfile>
